<?xml version="1.0" encoding="utf-8"?>
<svg version="1.1" id="Слой_1" xmlns="http://www.w3.org/2000/svg" x="0px" y="0px" viewBox="64.556 44.382 504.998 145.252" style="enable-background:new 0 0 623.62 638.3;">
  <style type="text/css">
	.st0{fill:#2E9838;}
	.st1{clip-path:url(#SVGID_2_);fill:#AAA6A2;}
</style>
  <g transform="matrix(1, 0, 0, 1, -1, -339)">
    <path class="st0" d="M65.45,382.13h506.89v146.35H65.45V382.13z M72.54,521.38h130.98v-0.99c0-43.39,0-86.79,0.02-130.18 c0-0.8-0.19-1.03-1.01-1.02c-43.03,0.02-86.05,0.02-129.08,0.02h-0.9V521.38z M323.23,465.89h44.98v-15.06h-44.96v-15.02h60.03 v-14.96c-0.3-0.02-0.55-0.05-0.81-0.05c-24.49,0-48.99,0-73.48-0.02c-0.74,0-0.88,0.24-0.88,0.92c0.02,24.45,0.01,48.9,0.02,73.34 c0,0.28,0.03,0.57,0.05,0.85h75.1v-15.01h-60.05V465.89z M488.47,473.39h1.09c4.76,0,9.52,0.01,14.28-0.01 c0.64,0,1.08,0.18,1.54,0.63c7.11,7.14,14.24,14.26,21.39,21.36c0.3,0.3,0.81,0.54,1.22,0.55c6.58,0.03,13.16,0.02,19.73,0.02 c0.22,0,0.45-0.03,0.67-0.05c0.04-0.07,0.08-0.13,0.12-0.2c-7.41-7.4-14.82-14.8-22.26-22.24c1.33-0.08,2.58-0.13,3.82-0.25 c2.95-0.28,5.8-0.95,8.46-2.28c5.79-2.9,8.59-7.88,9.59-14.03c0.86-5.33,0.5-10.72,0.38-16.08c-0.04-1.72-0.33-3.46-0.71-5.14 c-1.59-7.07-5.81-11.74-12.85-13.75c-3.01-0.86-6.09-1.11-9.2-1.12c-17.09-0.01-34.17,0-51.26,0h-0.97v75.1h14.96V473.39z M390.84,495.95h0.84c17.27,0,34.55,0.03,51.82-0.04c2.49-0.01,5.03-0.28,7.47-0.79c6.88-1.45,11.58-5.47,13.71-12.27 c0.92-2.93,1.28-5.95,1.28-9.01c0.02-10.31,0.05-20.63-0.03-30.94c-0.02-2.39-0.29-4.81-0.79-7.14 c-1.52-7.12-5.77-11.81-12.84-13.84c-2.98-0.85-6.04-1.12-9.12-1.12c-17.14-0.01-34.28,0-51.42,0h-0.92V495.95z M304.45,420.8 h-1.13c-5.67,0-11.34,0.02-17.01-0.02c-0.77,0-1.26,0.22-1.74,0.83c-7.63,9.57-15.29,19.12-22.93,28.68 c-0.34,0.42-0.68,0.58-1.21,0.57c-5.08-0.02-10.16-0.01-15.24-0.01h-0.87v-1.13c0-9.3,0-18.6,0-27.9c0-1.03,0-1.03-1.06-1.03 c-4.33,0-8.66,0-13,0h-0.94v75.1h14.98v-30.01h1.05c4.87,0,9.73,0.02,14.6-0.02c0.89-0.01,1.45,0.26,2,0.96 c7.56,9.49,15.15,18.95,22.72,28.43c0.38,0.48,0.76,0.7,1.4,0.7c5.8-0.03,11.61-0.02,17.41-0.02c0.25,0,0.5-0.03,0.92-0.05 c-10.08-12.59-20.05-25.05-30.04-37.52C284.38,445.87,294.34,433.42,304.45,420.8"/>
    <path class="st0" d="M113.33,449.95c0.42,2.91,0.71,5.86,1.31,8.74c0.6,2.89,1.5,5.71,2.3,8.66c-5.61,3.9-10.48,8.6-12.96,15.42 c1.71,0.45,3.33,0.47,4.89,0.21c10.76-1.82,19.92-6.68,27.37-14.67c0.72-0.77,1.28-1.71,1.85-2.61c0.68-1.09,0.66-1.16,1.93-0.85 c2.77,0.68,5.54,1.37,8.28,2.17c1.4,0.41,2.74,1.04,4.09,1.62c0.46,0.2,0.89,0.48,1.3,0.78c0.85,0.61,0.89,0.84,0.42,1.79 c-5.94,11.86-15.31,19.9-27.6,24.65c-8.71,3.37-17.78,4.7-27.09,4.68c-6.06-0.01-12.05-0.64-17.98-1.92 c-0.65-0.14-0.79-0.4-0.77-1.01c0.15-6.25,1.83-12.11,4.59-17.68c3.92-7.89,9.5-14.5,15.92-20.43c3.62-3.34,7.48-6.38,11.55-9.16 C112.97,450.16,113.22,450.01,113.33,449.95"/>
    <path class="st0" d="M139.99,492.26c4.91-3.77,9.48-7.74,12.27-13.38c6.57,3.51,13.63,4.02,20.95,3.91 c-0.15-0.39-0.24-0.65-0.36-0.91c-2.1-4.53-5.41-8.05-9.4-10.95c-6.33-4.59-13.38-7.52-21.11-8.74c-0.74-0.12-1.5-0.1-2.23-0.22 c-0.25-0.04-0.58-0.25-0.68-0.47c-2.14-4.78-3.27-9.8-3.53-15.03c-0.03-0.62,0.18-0.86,0.73-0.99c1.94-0.45,3.9-0.38,5.82-0.11 c14.86,2.12,27.67,8.4,38.15,19.16c8.02,8.23,12.65,18.2,14.34,29.55c0.1,0.69,0.2,1.37,0.29,2.06c0.07,0.53,0.11,1.06,0.17,1.65 C176.33,502.31,157.88,500.91,139.99,492.26"/>
    <path class="st0" d="M160.2,447.14c-5.65-2.41-11.49-4-17.69-4.44c-0.1-6.32-1.6-12.21-5.4-17.52c-1.53,2.98-2.61,5.98-3.33,9.11 c-1.63,7.14-1.12,14.22,0.58,21.26c0.56,2.33,1.28,4.63,1.87,6.95c0.1,0.41,0.06,0.96-0.14,1.33c-2.18,4.03-5.39,7.07-9.3,9.4 c-1.1,0.65-2.21,1.28-3.52,2.03c-1.17-2.83-2.41-5.52-3.4-8.3c-3.02-8.51-4.25-17.3-3.85-26.31c0.47-10.36,3.05-20.13,8.65-28.98 c3.13-4.95,7.07-9.17,11.76-12.69c0.53-0.4,0.87-0.36,1.38-0.01c4.66,3.18,8.2,7.39,11.16,12.13c4.91,7.88,8.08,16.46,9.97,25.52 c0.58,2.79,0.86,5.64,1.24,8.47C160.28,445.76,160.2,446.43,160.2,447.14"/>
    <path class="st0" d="M488.57,433.94h0.94c12.13,0,24.27-0.01,36.4,0.02c1.11,0,2.25,0.14,3.32,0.44c2.75,0.75,4.14,2.8,4.26,5.48 c0.16,3.67,0.2,7.38-0.09,11.04c-0.26,3.31-2.58,5.2-5.91,5.44c-0.64,0.05-1.28,0.07-1.92,0.07c-11.97,0-23.95,0-35.92,0 c-1.07,0-1.08,0-1.08-1.09v-20.35V433.94z"/>
    <path class="st0" d="M405.91,480.84v-44.98c0.29-0.01,0.57-0.04,0.86-0.04c12.19,0,24.39-0.01,36.58,0.01 c0.77,0,1.56,0.06,2.31,0.2c3.25,0.63,5.02,2.77,5.24,6.25c0.02,0.37,0.02,0.75,0.02,1.12c0,9.94,0.01,19.88-0.01,29.82 c0,0.85-0.05,1.72-0.23,2.55c-0.66,3.15-2.85,4.85-6.42,5.05c-0.29,0.02-0.59,0.02-0.88,0.02c-12.22,0-24.44,0-36.66,0H405.91z"/>
  </g>
  <g>
    <g>
      <path d="M-803.85-131.88c3.22,0,3.22-5,0-5C-807.07-136.88-807.08-131.88-803.85-131.88L-803.85-131.88z"/>
    </g>
  </g>
</svg>