<?xml version="1.0" encoding="utf-8"?>
<!-- Generator: Adobe Illustrator 24.1.2, SVG Export Plug-In . SVG Version: 6.00 Build 0)  -->
<svg version="1.1" id="Слой_1" xmlns="http://www.w3.org/2000/svg" xmlns:xlink="http://www.w3.org/1999/xlink" x="0px" y="0px"
	 viewBox="0 0 279 152.12" style="enable-background:new 0 0 279 152.12;" xml:space="preserve">
<style type="text/css">
	.st0{fill:#3FA435;}
	.st1{fill:#0F110F;}
</style>
<g>
	<g>
		<path class="st0" d="M144.98,66.9c-0.04,0.58-0.2,1.14-0.53,1.63c-5.73,8.75-15.3,10.5-25.16,9.98
			c-7.25-0.39-19.29-3.27-21.06-11.66c-28.1-0.02-56.2-0.05-84.3-0.08c-0.02,23.63-0.04,47.22-0.06,70.81
			c83.19,0.08,166.36,0.15,249.52,0.23c0.02-23.62,0.04-47.2,0.06-70.81C223.96,66.97,184.47,66.94,144.98,66.9 M81.83,133.74v0.48
			c-21.51-0.02-42.97-0.04-64.47-0.06c0.02-21.33,0.04-42.61,0.06-63.95h0.44c21.18,0.02,42.36,0.04,63.54,0.05
			c0.41,0,0.5,0.11,0.5,0.5C81.87,91.75,81.85,112.75,81.83,133.74 M131.51,121.93c-0.2,0.01-0.33,0.03-0.45,0.03
			c-2.86,0-5.71-0.01-8.57,0c-0.31,0-0.5-0.11-0.69-0.34c-3.72-4.59-7.46-9.17-11.17-13.77c-0.27-0.34-0.55-0.47-0.99-0.47
			c-2.39,0.02-4.79,0-7.19,0h-0.51c-0.01,4.86-0.01,9.68-0.02,14.52c-2.48,0-4.91,0-7.38-0.01c0.01-12.1,0.02-24.19,0.03-36.34
			c0.16,0,0.31,0,0.46,0c2.13,0,4.27,0,6.4,0c0.52,0,0.52,0,0.52,0.5c0,4.5-0.01,9-0.01,13.5c0,0.16,0,0.33,0,0.55h0.43
			c2.5,0,5,0,7.5,0.01c0.26,0,0.43-0.07,0.6-0.28c3.76-4.62,7.54-9.24,11.3-13.87c0.24-0.29,0.48-0.4,0.86-0.4
			c2.79,0.02,5.58,0.01,8.37,0.02h0.56c-4.98,6.11-9.89,12.12-14.82,18.17C121.65,109.8,126.55,115.84,131.51,121.93 M170.36,92.9
			c-9.84-0.01-19.68-0.02-29.55-0.03c0,2.44,0,4.83,0,7.27c7.37,0.01,14.74,0.02,22.13,0.02c0,2.44,0,4.83-0.01,7.28
			c-7.38,0-14.75-0.01-22.14-0.02c0,2.44,0,4.83-0.01,7.25c9.86,0.01,19.7,0.02,29.56,0.03c0,2.44,0,4.83-0.01,7.26
			c-12.32-0.01-24.62-0.02-36.97-0.04c-0.01-0.13-0.02-0.27-0.02-0.41c0.01-11.83,0.02-23.66,0.02-35.48c0-0.33,0.07-0.45,0.43-0.45
			c12.05,0.02,24.11,0.03,36.17,0.04c0.13,0,0.25,0.01,0.4,0.02C170.36,88.08,170.36,90.47,170.36,92.9 M211.04,111.34
			c0,1.48-0.18,2.94-0.63,4.36c-1.05,3.29-3.37,5.23-6.75,5.93c-1.2,0.25-2.45,0.38-3.68,0.38c-8.51,0.02-17.01,0-25.51-0.01h-0.41
			c0.01-12.13,0.02-24.22,0.03-36.36h0.45c8.44,0.01,16.87,0.01,25.31,0.02c1.52,0,3.02,0.13,4.49,0.55
			c3.48,0.98,5.57,3.26,6.32,6.7c0.24,1.13,0.38,2.3,0.39,3.46C211.08,101.36,211.06,106.35,211.04,111.34 M251.67,121.95
			c-0.02,0.03-0.04,0.06-0.06,0.1c-0.11,0.01-0.22,0.03-0.33,0.03c-3.24,0-6.48,0-9.71-0.02c-0.2,0-0.46-0.12-0.6-0.26
			c-3.52-3.44-7.02-6.89-10.52-10.35c-0.22-0.22-0.44-0.31-0.76-0.31c-2.34,0.01-4.69,0-7.03,0h-0.54c0,3.67-0.01,7.26-0.01,10.89
			c-2.47,0-4.9,0-7.36-0.01c0.01-12.11,0.02-24.2,0.03-36.34h0.48c8.41,0.01,16.82,0.01,25.23,0.02c1.53,0,3.05,0.13,4.53,0.55
			c3.46,0.98,5.54,3.24,6.32,6.66c0.19,0.82,0.33,1.66,0.35,2.49c0.06,2.6,0.23,5.2-0.19,7.78c-0.49,2.98-1.88,5.38-4.72,6.79
			c-1.31,0.64-2.72,0.96-4.17,1.1c-0.61,0.06-1.23,0.08-1.88,0.12C244.39,114.78,248.03,118.36,251.67,121.95"/>
		<path class="st0" d="M36.41,99.62c0.21,1.41,0.35,2.83,0.64,4.23c0.29,1.4,0.74,2.76,1.13,4.19c-2.76,1.88-5.16,4.15-6.38,7.45
			c0.84,0.22,1.64,0.23,2.41,0.1c5.3-0.87,9.81-3.22,13.48-7.09c0.35-0.37,0.63-0.82,0.91-1.26c0.33-0.53,0.33-0.56,0.95-0.41
			c1.37,0.33,2.73,0.67,4.08,1.05c0.69,0.2,1.35,0.51,2.01,0.78c0.23,0.1,0.44,0.23,0.64,0.38c0.42,0.3,0.44,0.41,0.21,0.86
			c-2.93,5.74-7.54,9.62-13.6,11.92c-4.29,1.62-8.76,2.27-13.33,2.25c-2.98-0.01-5.93-0.31-8.85-0.93c-0.32-0.07-0.39-0.2-0.38-0.49
			c0.08-3.03,0.9-5.86,2.27-8.55c1.93-3.81,4.68-7.01,7.85-9.88c1.78-1.61,3.69-3.08,5.69-4.42C36.24,99.72,36.36,99.65,36.41,99.62
			"/>
		<path class="st0" d="M49.52,120.1c2.42-1.82,4.67-3.74,6.05-6.47c3.23,1.7,6.71,1.95,10.31,1.9c-0.08-0.19-0.12-0.32-0.18-0.44
			c-1.03-2.19-2.66-3.9-4.62-5.3c-3.11-2.23-6.58-3.64-10.39-4.24c-0.36-0.06-0.74-0.05-1.1-0.1c-0.12-0.02-0.29-0.12-0.33-0.23
			c-1.05-2.31-1.61-4.74-1.73-7.27c-0.02-0.3,0.09-0.42,0.36-0.48c0.95-0.22,1.92-0.18,2.87-0.05c7.31,1.03,13.62,4.08,18.77,9.29
			c3.94,3.99,6.22,8.81,7.04,14.3c0.05,0.33,0.1,0.66,0.14,1c0.03,0.25,0.06,0.51,0.08,0.8C67.4,124.98,58.32,124.3,49.52,120.1"/>
		<path class="st0" d="M59.49,98.28c-2.78-1.17-5.66-1.94-8.71-2.15c-0.05-3.06-0.78-5.91-2.65-8.48c-0.75,1.44-1.29,2.9-1.64,4.41
			c-0.81,3.45-0.56,6.88,0.27,10.29c0.27,1.13,0.63,2.24,0.92,3.37c0.05,0.2,0.03,0.47-0.07,0.64c-1.08,1.95-2.66,3.42-4.58,4.54
			c-0.54,0.32-1.09,0.62-1.73,0.98c-0.57-1.37-1.18-2.67-1.67-4.02c-1.48-4.11-2.09-8.37-1.88-12.73c0.23-5.01,1.51-9.74,4.27-14.01
			c1.55-2.4,3.48-4.43,5.8-6.13c0.26-0.19,0.43-0.17,0.68,0c2.29,1.54,4.03,3.58,5.49,5.87c2.41,3.82,3.97,7.97,4.89,12.35
			c0.29,1.35,0.42,2.73,0.61,4.1C59.53,97.61,59.49,97.94,59.49,98.28"/>
		<path class="st0" d="M222.19,92.04h0.46c5.97,0,11.95,0,17.92,0.02c0.55,0,1.11,0.07,1.63,0.21c1.35,0.36,2.04,1.36,2.1,2.66
			c0.08,1.78,0.09,3.57-0.05,5.34c-0.13,1.6-1.27,2.51-2.91,2.63c-0.31,0.02-0.63,0.03-0.95,0.03c-5.89,0-11.79-0.01-17.68-0.01
			c-0.53,0-0.53,0-0.53-0.53c0-3.28,0.01-6.56,0.01-9.84V92.04z"/>
		<path class="st0" d="M181.48,114.7c0.01-7.27,0.01-14.5,0.02-21.76c0.14-0.01,0.28-0.02,0.42-0.02c6,0,12,0.01,18,0.02
			c0.38,0,0.77,0.02,1.14,0.1c1.6,0.31,2.47,1.34,2.58,3.03c0.01,0.18,0.01,0.36,0.01,0.54c0,4.81-0.01,9.62-0.02,14.43
			c0,0.41-0.03,0.83-0.12,1.23c-0.33,1.53-1.4,2.35-3.16,2.44c-0.14,0.01-0.29,0.01-0.43,0.01c-6.01,0-12.03-0.01-18.04-0.02H181.48
			"/>
		<path class="st1" d="M250.9,43.44c-0.09,0.51-0.18,1.01-0.26,1.52c-0.3,2.01-0.58,4.02-0.9,6.03c-0.05,0.34-0.24,0.65-0.37,0.98
			c-0.03-0.01-0.06-0.02-0.09-0.02c-0.04-1.53-0.08-3.06-0.12-4.61c-0.52-0.07-1.03-0.14-1.54-0.2c-2.01-0.25-4.02-0.5-6.03-0.74
			c-0.48-0.06-0.95-0.14-1.43-0.17c-0.2-0.02-0.27-0.11-0.32-0.29c-0.63-2.37-1.27-4.75-1.91-7.12c-0.62-2.29-1.23-4.58-1.85-6.88
			c-0.02-0.08-0.05-0.16-0.09-0.29c-0.66,0-1.32,0.02-1.98,0.01c-4.26-0.03-8.52-0.07-12.78-0.11c-0.2,0-0.35,0.06-0.49,0.21
			c-1.66,1.77-3.33,3.53-5,5.29c-0.13,0.14-0.26,0.2-0.44,0.2c-0.38-0.01-0.76,0-1.15,0.01c-0.17,0.01-0.25-0.05-0.32-0.22
			c-0.9-2.02-1.82-4.03-2.72-6.04c-0.1-0.22-0.22-0.29-0.44-0.29c-2.96,0.02-5.93,0.03-8.89,0.04c-0.16,0-0.33,0.06-0.48,0.14
			c-4.33,2.38-8.65,4.77-12.98,7.16c-0.08,0.05-0.17,0.09-0.28,0.15c-0.02-0.08-0.05-0.15-0.06-0.22c-0.37-1.93-0.74-3.86-1.1-5.79
			c-0.03-0.18-0.1-0.24-0.28-0.24c-3.85,0.04-7.7,0.07-11.56,0.09c-0.2,0-0.28,0.1-0.36,0.26c-1.63,3.04-3.27,6.07-4.89,9.11
			c-0.11,0.2-0.22,0.29-0.45,0.29c-3.58-0.04-7.17-0.06-10.76-0.1c-0.09,0-0.17-0.01-0.29-0.02c0.51-3.11,1.02-6.2,1.53-9.33
			c-3.83-0.05-7.63-0.1-11.46-0.16c0-0.14,0-0.25,0-0.36c0.01-2.74-0.21-5.45-0.99-8.08c-0.71-2.4-1.83-4.54-3.61-6.23
			c-1.26-1.2-2.73-1.98-4.32-2.56c-2.43-0.89-4.92-1.42-7.47-1.7c-2.9-0.31-5.79-0.29-8.69,0c-3.97,0.4-7.84,1.26-11.57,2.74
			c-2.5,1-4.48,2.76-6.15,4.94c-1.84,2.38-3.18,5.08-4.29,7.91c-1.43,3.63-2.44,7.39-3.29,11.21c-0.15,0.66-0.28,1.32-0.48,1.97
			c0.06-0.44,0.1-0.88,0.18-1.32c0.93-5.45,2.22-10.79,4.22-15.91c1.08-2.76,2.39-5.39,4.17-7.72c1.72-2.25,3.76-4.06,6.34-5.08
			c2.51-0.99,5.09-1.68,7.73-2.17c3.12-0.58,6.26-0.83,9.43-0.73c3.73,0.12,7.37,0.72,10.9,2.07c3.32,1.28,5.6,3.68,6.96,7.11
			c0.73,1.85,1.15,3.79,1.31,5.78c0.11,1.33,0.12,2.66,0.18,3.99c0,0.05,0.01,0.09,0.01,0.19c4.57,0.04,9.14,0.09,13.75,0.14
			c-0.51,3.13-1.02,6.21-1.53,9.33c0.12,0.01,0.22,0.02,0.31,0.02c2.83,0.03,5.66,0.06,8.49,0.1c0.2,0,0.29-0.06,0.39-0.24
			c1.63-3.04,3.27-6.07,4.89-9.11c0.12-0.22,0.23-0.3,0.47-0.3c3.8-0.02,7.6-0.05,11.4-0.09c0.22,0,0.3,0.06,0.34,0.3
			c0.35,1.9,0.72,3.79,1.08,5.68c0.02,0.08,0.04,0.16,0.07,0.28c0.12-0.06,0.21-0.11,0.31-0.16c4.32-2.38,8.64-4.76,12.96-7.14
			c0.16-0.09,0.37-0.15,0.55-0.15c2.95-0.02,5.89-0.02,8.84-0.04c0.22,0,0.33,0.07,0.42,0.28c0.9,2.01,1.81,4.01,2.71,6.02
			c0.09,0.19,0.19,0.26,0.38,0.25c0.36-0.02,0.73-0.02,1.09-0.01c0.19,0.01,0.33-0.05,0.47-0.2c1.67-1.77,3.34-3.54,5.03-5.3
			c0.1-0.1,0.27-0.18,0.41-0.18c4.87,0.03,9.75,0.08,14.62,0.13c0.06,0,0.12,0.01,0.2,0.02c0.22,0.8,0.44,1.61,0.65,2.41
			c1.05,3.92,2.11,7.85,3.16,11.77c0.07,0.25,0.17,0.33,0.41,0.35c2.24,0.23,4.48,0.48,6.72,0.72c1.04,0.12,2.08,0.23,3.12,0.34
			c0.08,0.01,0.16,0.03,0.23,0.05V43.44z"/>
		<path class="st1" d="M133.81,37.57c0.06-0.99,0.17-1.95,0.17-2.91c0-0.78-0.06-1.58-0.19-2.36c-0.22-1.26-0.95-2.09-2.08-2.54
			c-0.87-0.35-1.79-0.5-2.71-0.54c-1.59-0.07-3.17-0.11-4.76-0.09c-1.29,0.02-2.56,0.23-3.8,0.63c-1.39,0.44-2.48,1.3-3.3,2.57
			c-0.88,1.34-1.4,2.85-1.85,4.39c-0.75,2.61-1.29,5.27-1.71,7.96c-0.34,2.19-0.62,4.4-0.86,6.61c-0.19,1.7-0.24,3.41,0.06,5.11
			c0.08,0.45,0.19,0.9,0.34,1.34c0.57,1.62,1.75,2.46,3.28,2.81c1.41,0.33,2.83,0.39,4.26,0.37c1.86-0.03,3.71-0.11,5.53-0.53
			c0.35-0.08,0.7-0.19,1.05-0.31c2.02-0.67,3.16-2.22,3.63-4.34c0.28-1.28,0.46-2.59,0.68-3.89c0.04-0.21,0.07-0.43,0.11-0.65
			c3.11-0.02,6.2-0.04,9.32-0.05c-0.13,0.74-0.25,1.46-0.37,2.18c-0.3,1.83-0.62,3.66-1.2,5.42c-0.64,1.95-1.49,3.77-2.78,5.33
			c-1.66,2-3.76,3.27-6.12,4.08c-1.77,0.61-3.59,0.96-5.43,1.18c-2.58,0.31-5.17,0.39-7.76,0.32c-2.53-0.08-5.05-0.32-7.48-1.15
			c-2.25-0.76-4.09-2.11-5.3-4.32c-0.74-1.35-1.14-2.84-1.38-4.37c-0.36-2.38-0.33-4.77-0.16-7.17c0.33-4.52,0.97-8.99,1.97-13.4
			c0.66-2.94,1.51-5.81,2.77-8.53c2.31-4.97,6-8.11,11.05-9.47c2.89-0.78,5.82-0.99,8.79-0.96c2.45,0.02,4.89,0.19,7.3,0.76
			c1.07,0.25,2.1,0.62,3.09,1.11c2.57,1.27,4.17,3.37,4.85,6.29c0.35,1.5,0.5,3.03,0.46,4.57c-0.04,1.41-0.14,2.83-0.2,4.24
			c-0.01,0.23-0.09,0.29-0.31,0.3c-2.91,0.01-5.82,0.03-8.73,0.04C133.96,37.58,133.88,37.58,133.81,37.57"/>
		<path class="st1" d="M245.76,58.46c-0.08,0.06-0.15,0.12-0.23,0.18c-4.19,3.1-8.38,6.2-12.58,9.3c-0.14,0.1-0.34,0.16-0.51,0.16
			c-12.74,0-25.47,0-38.2-0.01c-16.11-0.01-32.21-0.01-48.32-0.02c-0.19,0-0.37,0-0.51,0c-0.2,0.86-0.35,1.7-0.61,2.49
			c-0.79,2.45-2.29,4.36-4.21,5.91c-1.85,1.5-3.91,2.53-6.11,3.32c-2.55,0.91-5.17,1.44-7.85,1.7c-2.75,0.27-5.5,0.27-8.24-0.03
			c-3.74-0.4-7.37-1.24-10.81-2.89c-2.06-0.98-3.99-2.21-5.54-3.99c-2.32-2.69-3.98-5.77-4.54-9.43c0-0.02,0-0.04,0.01-0.1
			c0.03,0.07,0.06,0.11,0.07,0.15c1.35,4.21,4.05,7.1,7.75,9.03c2.15,1.12,4.42,1.82,6.77,2.28c3.58,0.7,7.19,1.06,10.83,0.96
			c4.61-0.12,9.1-0.91,13.42-2.66c1.65-0.67,3.2-1.53,4.54-2.77c1.33-1.24,2.25-2.78,2.95-4.49c0.27-0.67,0.53-1.35,0.78-2.04
			c0.08-0.22,0.18-0.28,0.38-0.28c6.96,0,13.91,0,20.87,0c17.85-0.01,35.69-0.02,53.54-0.04c3.72,0,7.44,0,11.16-0.01
			c0.16,0,0.33-0.04,0.49-0.11c4.81-2.19,9.63-4.38,14.44-6.57c0.08-0.04,0.16-0.06,0.24-0.1
			C245.75,58.43,245.76,58.45,245.76,58.46"/>
		<path class="st1" d="M192.76,52.14c1.57-0.01,3.1-0.02,4.64-0.03c0.06,0,0.12,0,0.22,0.01c-0.07,0.53-0.15,1.05-0.2,1.57
			c-0.04,0.39-0.04,0.79-0.02,1.18c0.02,0.49,0.27,0.84,0.72,0.97c0.35,0.1,0.71,0.17,1.07,0.2c1.46,0.11,2.93,0.14,4.37-0.16
			c0.28-0.06,0.55-0.15,0.81-0.26c0.64-0.25,1.08-0.73,1.33-1.41c0.23-0.63,0.36-1.29,0.35-1.96c-0.01-0.67-0.22-1.05-0.82-1.23
			c-0.56-0.17-1.14-0.28-1.72-0.34c-1.33-0.14-2.68-0.19-4.01-0.34c-0.74-0.09-1.48-0.24-2.18-0.47c-2.11-0.69-3.18-2.23-3.22-4.57
			c-0.02-1.39,0.2-2.74,0.67-4.04c0.81-2.25,2.39-3.58,4.5-4.31c1.23-0.42,2.49-0.61,3.77-0.67c1.91-0.1,3.82-0.07,5.68,0.46
			c0.58,0.16,1.15,0.4,1.67,0.71c1.12,0.68,1.61,1.8,1.78,3.12c0.14,1.15-0.08,2.26-0.25,3.37c-0.01,0.06-0.11,0.16-0.16,0.16
			c-1.55,0.02-3.11,0.02-4.66,0.03c-0.02,0-0.03-0.01-0.08-0.04c0.05-0.35,0.11-0.71,0.13-1.07c0.02-0.37,0.02-0.75-0.02-1.13
			c-0.04-0.47-0.3-0.79-0.72-0.91c-0.37-0.11-0.76-0.2-1.14-0.23c-1.23-0.11-2.47-0.1-3.68,0.16c-1.24,0.26-2,1.04-2.24,2.36
			c-0.07,0.36-0.12,0.72-0.15,1.09c-0.05,0.71,0.12,1,0.77,1.17c0.57,0.15,1.16,0.25,1.75,0.3c1.17,0.1,2.36,0.13,3.53,0.22
			c0.96,0.07,1.92,0.25,2.84,0.6c2.04,0.77,3.09,2.4,3,4.7c-0.06,1.66-0.41,3.25-1,4.78c-0.84,2.18-2.42,3.42-4.51,4.01
			c-1.31,0.37-2.65,0.51-4,0.56c-1.83,0.07-3.66,0.04-5.46-0.35c-0.37-0.08-0.74-0.2-1.09-0.35c-1.66-0.72-2.49-2.07-2.62-3.94
			C192.31,54.73,192.54,53.45,192.76,52.14"/>
		<path class="st1" d="M230.07,43.97c0.05-0.39,0.12-0.76,0.14-1.12c0.02-0.37,0.01-0.75-0.02-1.13c-0.04-0.44-0.29-0.76-0.69-0.88
			c-0.38-0.12-0.77-0.21-1.17-0.24c-1.16-0.11-2.32-0.11-3.47,0.11c-1.57,0.3-2.31,1.12-2.54,2.84c-0.04,0.28-0.07,0.56-0.07,0.84
			c0,0.51,0.14,0.77,0.6,0.92c0.45,0.15,0.93,0.27,1.4,0.31c1.14,0.1,2.28,0.15,3.43,0.22c1.18,0.08,2.35,0.23,3.47,0.65
			c2.05,0.77,3.09,2.39,3.01,4.69c-0.06,1.65-0.4,3.25-0.99,4.78c-0.84,2.18-2.42,3.43-4.51,4.02c-1.33,0.37-2.68,0.52-4.05,0.57
			c-1.81,0.06-3.62,0.04-5.41-0.34c-0.34-0.07-0.67-0.18-0.99-0.3c-1.76-0.72-2.62-2.13-2.73-4.1c-0.07-1.27,0.15-2.52,0.36-3.78
			c1.62-0.01,3.23-0.02,4.86-0.03c-0.07,0.53-0.15,1.04-0.2,1.55c-0.04,0.39-0.04,0.79-0.02,1.18c0.02,0.51,0.28,0.86,0.74,0.99
			c0.35,0.1,0.71,0.17,1.07,0.2c1.45,0.1,2.91,0.13,4.35-0.16c0.17-0.03,0.34-0.08,0.51-0.14c0.91-0.28,1.51-0.89,1.74-1.88
			c0.12-0.53,0.21-1.07,0.24-1.61c0.03-0.68-0.21-1.06-0.83-1.25c-0.55-0.17-1.12-0.28-1.69-0.33c-1.33-0.14-2.67-0.19-4-0.34
			c-0.73-0.08-1.46-0.24-2.16-0.46c-2.06-0.66-3.12-2.06-3.23-4.38c-0.09-1.92,0.27-3.77,1.22-5.45c0.9-1.61,2.3-2.53,3.92-3.1
			c1.22-0.43,2.49-0.61,3.77-0.68c1.92-0.1,3.83-0.06,5.71,0.45c0.35,0.1,0.69,0.23,1.03,0.37c1.44,0.62,2.18,1.8,2.39,3.4
			c0.16,1.17-0.07,2.31-0.26,3.45c-0.01,0.06-0.16,0.14-0.25,0.14c-1.47,0.02-2.93,0.02-4.39,0.03
			C230.25,43.99,230.18,43.98,230.07,43.97"/>
		<path class="st1" d="M166.09,60.61c0.06-0.13,0.09-0.23,0.14-0.31c3.71-7.81,7.42-15.61,11.12-23.42c0.1-0.21,0.21-0.28,0.42-0.28
			c2.05,0,4.1-0.02,6.15-0.03c0.1,0,0.19,0,0.31,0c1.23,7.98,2.47,15.93,3.7,23.91c-1.72,0.01-3.42,0.02-5.14,0.03
			c-0.15-1.03-0.31-2.05-0.46-3.07c-0.06-0.37-0.1-0.75-0.17-1.12c-0.01-0.07-0.11-0.14-0.18-0.18c-0.05-0.03-0.12,0-0.18,0
			c-2.67,0.01-5.34,0.03-8.01,0.04c-0.23,0-0.34,0.07-0.45,0.29c-0.6,1.29-1.21,2.58-1.82,3.87c-0.08,0.18-0.18,0.26-0.38,0.26
			C169.48,60.59,167.81,60.6,166.09,60.61 M180.11,42.15c-0.02-0.01-0.04-0.02-0.06-0.02c-1.53,3.25-3.07,6.5-4.61,9.77
			c2.07-0.01,4.09-0.02,6.13-0.04C181.08,48.61,180.59,45.38,180.11,42.15"/>
		<path class="st1" d="M150.76,36.77c1.71-0.01,3.39-0.02,5.11-0.03c-1.04,6.37-2.09,12.73-3.14,19.12
			c3.33-0.02,6.64-0.04,9.99-0.05c-0.26,1.63-0.51,3.22-0.77,4.82c-5.05,0.02-10.06,0.05-15.11,0.08
			C148.15,52.72,149.46,44.75,150.76,36.77"/>
	</g>
</g>
</svg>
